<?xml version="1.0" encoding="utf-8"?>
<!-- Generator: Adobe Illustrator 21.1.0, SVG Export Plug-In . SVG Version: 6.00 Build 0)  -->
<svg version="1.1" id="Слой_2" xmlns="http://www.w3.org/2000/svg" xmlns:xlink="http://www.w3.org/1999/xlink" x="0px" y="0px"
	 viewBox="0 0 64 64" style="enable-background:new 0 0 64 64;" xml:space="preserve">
<style type="text/css">
	.st0{fill:#919496;}
</style>
<g id="FaceBook">
	<g id="facebook_x5F_ellipse_2_">
		<path class="st0" d="M32,2.7c16,0,29,13.1,29,29.3S48,61.3,32,61.3S3,48.2,3,32S16,2.7,32,2.7 M32,1.2C15.2,1.2,1.5,15,1.5,32
			S15.2,62.8,32,62.8S62.5,49,62.5,32S48.8,1.2,32,1.2L32,1.2z"/>
	</g>
	<g id="Facebook">
		<g>
			<path class="st0" d="M36.7,14.9c1.7,0,3.1,0.1,3.6,0.2v3.3l-3.9,0.1c-2.7,0-4.2,0.9-4.2,2.8v6.6h7.9l-0.4,3.9L32,32l0.2,17.6
				h-5.6V32l-4.1,0.1V28l3.9-0.2v-5.3c-0.3-6.1,2.9-7.6,8.2-7.7C35.2,14.9,36,14.9,36.7,14.9 M36.7,13.6c-0.7,0-1.5,0-2.2,0
				c-3.7,0.1-6,0.9-7.6,2.5c-1.4,1.5-2,3.6-1.8,6.5v4l-2.7,0.1l-1.2,0.1V28v4.1v1.3h1.3l2.8-0.1v16.3v1.3h1.3h5.6h1.3v-1.3
				l-0.2-16.3l6.4-0.1h1.1l0.1-1.1l0.4-3.9l0.1-1.4H40h-6.6v-5.4c0-0.5,0-1.5,2.9-1.5l3.9-0.1h1.2v-1.2v-3.3v-1L40.5,14
				C40.4,13.8,39.8,13.6,36.7,13.6L36.7,13.6z"/>
		</g>
	</g>
</g>
</svg>
