<?xml version="1.0" encoding="utf-8"?>
<!-- Generator: Adobe Illustrator 21.1.0, SVG Export Plug-In . SVG Version: 6.00 Build 0)  -->
<svg version="1.1" id="Слой_3" xmlns="http://www.w3.org/2000/svg" xmlns:xlink="http://www.w3.org/1999/xlink" x="0px" y="0px"
	 viewBox="0 0 64 64" style="enable-background:new 0 0 64 64;" xml:space="preserve">
<style type="text/css">
	.st0{fill:#919496;}
</style>
<g id="GitHub_1_">
	<g id="github_x5F_ellipse">
		<path class="st0" d="M32,2.7c16,0,29,13.1,29,29.3S48,61.3,32,61.3S3,48.2,3,32S16,2.7,32,2.7 M32,1.2C15.2,1.2,1.5,15,1.5,32
			S15.2,62.8,32,62.8S62.5,49,62.5,32S48.8,1.2,32,1.2L32,1.2z"/>
	</g>
	<g id="GitHub">
		<g>
			<path class="st0" d="M45.1,17.1L45.1,17.1c1.1,3.1,0.3,5.4,0.1,5.8L45,23.3l0.3,0.4c1.6,1.8,2.4,3.9,2.4,6.4
				c0,9.4-5.6,11.3-11.1,11.9l-1.7,0.2l1.3,1.1c0.4,0.4,1.5,1.6,1.5,4.2c0,2.3,0,5.7,0,8c0,0.6,0,1.1,0,1.5H26.6c0-1.7,0-5.5,0-7.2
				v-0.9l-0.9,0.2c-0.9,0.2-1.8,0.3-2.6,0.3c-4.1,0-5.1-2.7-5.2-2.9c-1.1-2.9-2.8-3.9-3.2-4.1c-0.1-0.1-0.2-0.1-0.2-0.2
				c2.1,0.2,3.3,2.2,3.3,2.3c1.5,2.6,3.7,3.2,5.2,3.2c1.3,0,2.5-0.4,3.2-0.7l0.4-0.2l0.1-0.4c0.2-1.8,1-2.6,1.4-3l1.3-1.1l-1.7-0.2
				c-5.5-0.6-11-2.5-11-12c0-2.5,0.8-4.6,2.5-6.4l0.3-0.4l-0.2-0.4c-0.2-0.4-1-2.7,0.1-5.8l0,0c0.7,0,2.7,0.3,6.1,2.6l0.3,0.2
				l0.3-0.1c1.9-0.5,4.1-0.8,6.2-0.8s4.3,0.3,6.2,0.8l0.3,0.1l0.3-0.2C42.5,17.4,44.4,17.1,45.1,17.1 M45.1,16.4
				c-0.9,0-3,0.3-6.5,2.7c-2.1-0.6-4.3-0.9-6.4-0.9c-2.2,0-4.4,0.3-6.4,0.9c-3.5-2.3-5.6-2.7-6.5-2.7c-0.4,0-0.6,0.1-0.6,0.1
				c-1.4,3.5-0.5,6.2-0.2,6.8c-1.6,1.8-2.6,4.1-2.6,6.9c0,9.8,6,12,11.7,12.7c-0.7,0.6-1.4,1.8-1.6,3.4c-0.6,0.3-1.7,0.7-2.9,0.7
				c-1.5,0-3.3-0.6-4.5-2.8c0,0-1.4-2.5-3.9-2.6l0,0c-0.2,0-2.4,0-0.2,1.6c0,0,1.7,0.8,2.9,3.8c0,0,1.1,3.4,5.9,3.4
				c0.8,0,1.7-0.1,2.8-0.3c0,2.1,0,7.4,0,8h12.7c0-0.8,0-6.8,0-10.3c0-2.4-0.8-4-1.7-4.8c5.7-0.6,11.7-2.8,11.7-12.7
				c0-2.8-1-5.1-2.6-6.9c0.3-0.6,1.1-3.3-0.3-6.8C45.7,16.4,45.5,16.4,45.1,16.4L45.1,16.4z"/>
		</g>
	</g>
</g>
</svg>
