<?xml version="1.0" encoding="utf-8"?>
<!-- Generator: Adobe Illustrator 21.1.0, SVG Export Plug-In . SVG Version: 6.00 Build 0)  -->
<svg version="1.1" id="Слой_3" xmlns="http://www.w3.org/2000/svg" xmlns:xlink="http://www.w3.org/1999/xlink" x="0px" y="0px"
	 viewBox="0 0 64 64" style="enable-background:new 0 0 64 64;" xml:space="preserve">
<style type="text/css">
	.st0{fill:#919496;}
	.st1{font-family:'CenturyGothic-Bold';}
	.st2{font-size:19.1176px;}
</style>
<g id="Google__x2B_">
	<g id="googleplus_x5F_ellipse">
		<path class="st0" d="M32,2.7c16,0,29,13.1,29,29.3S48,61.3,32,61.3S3,48.2,3,32S16,2.7,32,2.7 M32,1.2C15.2,1.2,1.5,15,1.5,32
			S15.2,62.8,32,62.8S62.5,49,62.5,32S48.8,1.2,32,1.2L32,1.2z"/>
	</g>
	<g id="Google_1_">
		<path id="Google" class="st0" d="M37.1,37.3c-1,2.1-2.6,3.4-3.2,3.9c-0.5,0.4-2.5,1.9-5.7,2.4c-1.1,0.2-3.5,0.4-6.3-0.6
			c-1.6-0.6-5.2-2.3-7-6.3c-1.2-2.7-1-5.3-0.8-6.4c0.6-3.7,3-8,7.8-9.7c4.1-1.5,8.7-0.5,12,2.4l-1.8,1.7c-0.5-0.5-1.3-1.2-2.5-1.7
			c-3-1.3-6.6-0.7-9.2,1.2c-2.8,2-4.7,5.7-3.9,9.7c0.8,3.9,3.9,6.6,7.4,7.4c5.1,1.1,8.7-2.6,9-2.8l0,0c1.6-1.6,2.3-3.9,2.3-6.1v-0.1
			H27V30h10.5C38.1,30.6,38.8,33.9,37.1,37.3z"/>
		<text transform="matrix(1 0 0 1 40.457 37.542)" class="st0 st1 st2">+</text>
	</g>
</g>
</svg>
