<?xml version="1.0" encoding="utf-8"?>
<!-- Generator: Adobe Illustrator 21.1.0, SVG Export Plug-In . SVG Version: 6.00 Build 0)  -->
<svg version="1.1" id="Слой_2" xmlns="http://www.w3.org/2000/svg" xmlns:xlink="http://www.w3.org/1999/xlink" x="0px" y="0px"
	 viewBox="0 0 64 64" style="enable-background:new 0 0 64 64;" xml:space="preserve">
<style type="text/css">
	.st0{fill:#919496;}
	.st1{fill:none;stroke:#919496;stroke-width:1.25;stroke-miterlimit:10;}
</style>
<g id="vk_x5F_ellipse">
	<path class="st0" d="M32,2.7c16,0,29,13.1,29,29.3S48,61.3,32,61.3S3,48.2,3,32S16,2.7,32,2.7 M32,1.2C15.2,1.2,1.5,15,1.5,32
		S15.2,62.8,32,62.8S62.5,49,62.5,32S48.8,1.2,32,1.2L32,1.2z"/>
</g>
<g id="VK">
	<path class="st1" d="M48.2,24.9c0.3-0.8,0-1.4-1.2-1.4h-4c-1,0-1.5,0.5-1.7,1.1c0,0-2,4.9-4.8,8.1c-0.9,0.9-1.3,1.2-1.8,1.2
		c-0.3,0-0.6-0.3-0.6-1.1V25c0-1-0.3-1.4-1.1-1.4h-6.2c-0.6,0-1,0.5-1,0.9c0,0.9,1.4,1.2,1.6,3.8V34c0,1.3-0.2,1.5-0.7,1.5
		c-1.3,0-4.6-4.9-6.5-10.5c-0.4-1.1-0.8-1.5-1.8-1.5h-3.9c-1.1,0-1.4,0.5-1.4,1.1c0,1,1.3,6.2,6.2,13.1c3.3,4.7,7.8,7.2,12,7.2
		c2.5,0,2.8-0.6,2.8-1.5v-3.5c0-1.1,0.2-1.3,1-1.3c0.6,0,1.6,0.3,3.9,2.5c2.7,2.7,3.1,3.9,4.6,3.9h3.9c1.1,0,1.7-0.6,1.4-1.7
		c-0.4-1.1-1.6-2.7-3.3-4.6c-0.9-1.1-2.3-2.3-2.7-2.8c-0.6-0.8-0.4-1.1,0-1.8C42.9,33.9,47.7,27.2,48.2,24.9z"/>
</g>
</svg>
